<svg xmlns="http://www.w3.org/2000/svg" width="1000" height="272.492" viewBox="0 0 937.5 255.461" id="svg2" version="1.1"><g id="layer1" style="display:inline" transform="translate(775.267 -502.728)"><path id="rect4147" style="color:#000;clip-rule:nonzero;visibility:visible;opacity:1;isolation:auto;mix-blend-mode:normal;color-interpolation:srgb;color-interpolation-filters:linearrgb;solid-color:#000;solid-opacity:1;fill:#000;fill-opacity:1;fill-rule:evenodd;stroke:none;stroke-width:1.6797px;stroke-linecap:round;stroke-linejoin:round;stroke-miterlimit:4;stroke-dasharray:none;stroke-dashoffset:0;stroke-opacity:1;color-rendering:auto;image-rendering:auto;shape-rendering:auto;text-rendering:auto;enable-background:accumulate;display:inline;overflow:visible" d="M-718.005 559.99v140.937h5.766V584.844c0-5.478-.378-16.43-.378-16.43l24.555 132.513h7.11l24.556-132.513s-.38 10.952-.38 16.43v116.083h5.768V559.99h-9.692l-23.806 128.47-23.808-128.47zm106.393 0v140.937h11.977V559.99zm53.643 0v140.937h16.031v-96.345l23.367 96.345h16.802V559.99h-16.03v93.302l-22.629-93.302zm95.195 0v140.937h30.278c18.481 0 24.223-6.634 24.223-24.03V584.02c0-17.396-5.742-24.03-24.223-24.03zm90.133 0v140.937h24.263v-59.824h8.736v59.824h24.263V559.99h-24.263v58.337h-8.736v-58.337zm95.422 0v117.758c0 12.76 4.9 25.413 28.63 25.413 23.73 0 28.63-12.652 28.63-25.413V559.989h-24.262v117.759c0 1.686-2.03 3.502-4.368 3.502-2.338 0-4.368-1.816-4.368-3.502V559.989Zm95.501 0v140.937h20.564v-65.85c0-5.936-.292-13.282-.725-21.016l19.331 86.866h21.17V559.99h-20.563v65.848c0 4.68.175 10.231.462 16.16l-18.25-82.008zm89.775 0v17.78h16.157v123.157h18.259V577.77h16.158v-17.78zm80.66 0v140.937h39.976V688.95H.695v-53.025h24.09v-11.977H.694v-51.981h27.998v-11.978zm74.86 0v140.94h5.767v-61.82h11.192l23.926 61.82h6.186l-23.95-61.881c10.028-.766 18.274-9.464 18.274-19.648v-39.704c0-10.666-9.043-19.708-19.708-19.708zm5.767 5.764h15.92c7.314 0 13.942 6.628 13.942 13.943V619.4c0 7.314-6.628 13.943-13.942 13.943h-15.92ZM-441.39 580.02h8.894c1.339 0 2.84 1.501 2.84 2.84v95.199c0 1.338-1.501 2.84-2.84 2.84h-8.894z"/></g></svg>